{
 "accessors": [
  {
   "componentType": 5126,
   "type": "VEC3",
   "count": 9639,
   "max": [
    382.68701171875,
    443.2539978027344,
    896.9530029296875
   ],
   "min": [
    -950.3380126953125,
    -6.8754048347473145,
    -896.9530029296875
   ],
   "bufferView": 2
  },
  {
   "componentType": 5126,
   "type": "VEC3",
   "count": 9639,
   "bufferView": 3
  },
  {
   "componentType": 5126,
   "type": "VEC2",
   "count": 9639,
   "bufferView": 4
  },
  {
   "componentType": 5123,
   "type": "SCALAR",
   "count": 48222,
   "bufferView": 5
  }
 ],
 "asset": {
  "version": "2.0",
  "generator": "clara.io"
 },
 "bufferViews": [
  {
   "buffer": 0,
   "byteOffset": 0,
   "byteLength": 736704
  },
  {
   "buffer": 0,
   "byteOffset": 736704,
   "byteLength": 923098
  },
  {
   "buffer": 0,
   "byteOffset": 1659804,
   "byteLength": 115668,
   "target": 34962,
   "byteStride": 12
  },
  {
   "buffer": 0,
   "byteOffset": 1775472,
   "byteLength": 115668,
   "target": 34962,
   "byteStride": 12
  },
  {
   "buffer": 0,
   "byteOffset": 1891140,
   "byteLength": 77112,
   "target": 34962,
   "byteStride": 8
  },
  {
   "buffer": 0,
   "byteOffset": 1968252,
   "byteLength": 96444,
   "target": 34963
  }
 ],
 "buffers": [
  {
   "byteLength": 2064696,
   "uri": "data:application/octet-stream;base64,"
  }
 ],
 "images": [
  {
   "name": "alduin.jpg",
   "bufferView": 0,
   "mimeType": "image/jpeg"
  },
  {
   "name": "alduin_n.jpg",
   "bufferView": 1,
   "mimeType": "image/jpeg"
  }
 ],
 "materials": [
  {
   "name": "Physical",
   "pbrMetallicRoughness": {
    "baseColorFactor": [
     0.40784313725490196,
     0.40784313725490196,
     0.40784313725490196,
     1
    ],
    "baseColorTexture": {
     "index": 0,
     "texCoord": 0
    },
    "roughnessFactor": 0.78,
    "metallicFactor": 0
   },
   "normalTexture": {
    "index": 1
   }
  }
 ],
 "meshes": [
  {
   "primitives": [
    {
     "indices": 3,
     "material": 0,
     "mode": 4,
     "attributes": {
      "POSITION": 0,
      "NORMAL": 1,
      "TEXCOORD_0": 2
     }
    }
   ]
  }
 ],
 "nodes": [
  {
   "name": "Null"
  },
  {
   "name": "LightPreset",
   "translation": [
    -283.82550048828125,
    -9.618106842041016,
    5.537300109863281
   ]
  },
  {
   "name": "Alduin Dragon",
   "translation": [
    0,
    -227.80740356445312,
    5.537300109863281
   ],
   "mesh": 0
  }
 ],
 "samplers": [
  {
   "magFilter": 9729,
   "minFilter": 9987,
   "wrapS": 10497,
   "wrapT": 10497
  }
 ],
 "scene": 0,
 "scenes": [
  {
   "nodes": [
    0,
    1,
    2
   ]
  }
 ],
 "textures": [
  {
   "sampler": 0,
   "source": 0
  },
  {
   "sampler": 0,
   "source": 1
  }
 ]
}